<svg width="24" height="24" viewBox="0 0 24 24" fill="none" xmlns="http://www.w3.org/2000/svg">
<path fill-rule="evenodd" clip-rule="evenodd" d="M5.23752 3.30111C8.97234 -0.433705 15.0277 -0.433705 18.7625 3.30111C22.4973 7.03593 22.4973 13.0913 18.7625 16.8261C16.8881 18.7005 12 23.5 12 23.5C12 23.5 7.50627 19.0875 5.49093 17.079L5.23752 16.8261C1.5027 13.0913 1.5027 7.03593 5.23752 3.30111ZM9.50165 7.56524C8.12184 8.94505 8.12184 11.1822 9.50165 12.562C10.8815 13.9418 13.1186 13.9418 14.4984 12.562C15.8782 11.1822 15.8782 8.94505 14.4984 7.56524C13.1186 6.18544 10.8815 6.18544 9.50165 7.56524Z" fill="black"/>
</svg>
